#!OML:ASF F:\VICON\USERDATA\INSTALL\rory3\rory3.ASF
:FULLY-SPECIFIED
:DEGREES
101
root -0.646759 17.2425 21.2961 4.69557 -3.4254 -4.25719
lowerback 16.8336 1.69517 5.3238
upperback -0.380027 3.57072 2.71066
thorax -9.74537 1.51045 -0.953133
lowerneck -21.1682 -4.07132 -1.44851
upperneck 12.1937 -5.54223 2.70813
head 7.30115 -2.45477 0.44717
rclavicle -2.46493e-014 -4.45278e-014
rhumerus -28.8682 15.0336 -93.7005
rradius 109.499
rwrist -29.2529
rhand -16.874 37.1151
rfingers 7.12502
rthumb 9.35696 7.34281
lclavicle -2.46493e-014 -4.45278e-014
lhumerus -54.3227 -6.04513 90.4582
lradius 75.7533
lwrist 31.7402
lhand -33.2447 12.6361
lfingers 7.12502
lthumb -6.45045 42.5179
rfemur -7.30262 6.05973 35.2466
rtibia 46.1272
rfoot -21.9547 -15.2983
rtoes -17.3587
lfemur -41.5438 5.67315 -10.8827
ltibia 104.337
lfoot 6.78587 -11.6375
ltoes -11.691
102
root -0.626588 17.3445 21.8219 5.2147 -3.35539 -3.97639
lowerback 16.3752 1.89275 5.34915
upperback -0.555203 3.78719 2.44143
thorax -9.64589 1.60665 -1.29467
lowerneck -21.5677 -4.3071 -1.3762
upperneck 12.356 -5.90129 2.81186
head 7.42894 -2.60499 0.415941
rclavicle -7.7526e-015 -9.54166e-015
rhumerus -27.9516 15.8879 -93.5648
rradius 111.874
rwrist -28.9608
rhand -16.9712 36.0145
rfingers 7.12502
rthumb 9.2631 6.23798
lclavicle -7.7526e-015 -9.54166e-015
lhumerus -55.2973 -6.36086 90.3663
lradius 76.5436
lwrist 31.8551
lhand -29.5138 6.2372
lfingers 7.12502
lthumb -2.84791 36.1979
rfemur -5.61311 5.83576 34.5931
rtibia 44.9449
rfoot -20.0961 -13.6067
rtoes -17.7015
lfemur -43.3475 4.96057 -11.9251
ltibia 101.749
lfoot 5.34259 -9.62379
ltoes -12.8563
103
root -0.612354 17.4466 22.3614 5.38417 -3.23095 -4.14648
lowerback 16.1164 2.04814 5.73237
upperback -0.641371 4.04223 2.34094
thorax -9.54647 1.70887 -1.66673
lowerneck -21.7862 -4.52374 -1.45224
upperneck 12.5313 -6.22129 3.0652
head 7.54132 -2.73 0.464398
rclavicle -1.5207e-014 -3.73715e-014
rhumerus -27.5058 16.6225 -93.6255
rradius 114.156
rwrist -28.4273
rhand -17.0791 37.388
rfingers 7.12502
rthumb 9.15906 7.60686
lclavicle -1.5207e-014 -3.73715e-014
lhumerus -56.398 -6.49366 90.2198
lradius 77.5366
lwrist 32.0504
lhand -29.8424 7.2821
lfingers 7.12502
lthumb -3.16523 37.2384
rfemur -3.60425 5.62523 34.5118
rtibia 43.6252
rfoot -17.5503 -12.0835
rtoes -18.8794
lfemur -44.5473 4.30916 -12.2302
ltibia 98.8102
lfoot 3.79094 -8.06222
ltoes -17.8846
104
root -0.591803 17.5508 22.9255 5.39428 -2.79326 -3.92479
lowerback 15.8049 2.12297 5.91866
upperback -0.780424 4.14096 2.13318
thorax -9.48685 1.74185 -2.00516
lowerneck -21.7255 -4.75909 -1.54481
upperneck 12.6537 -6.54791 3.23124
head 7.58894 -2.87194 0.491184
rclavicle 1.3418e-014 3.97569e-015
rhumerus -27.5267 17.3482 -93.7407
rradius 116.379
rwrist -28.1648
rhand -17.3749 39.6827
rfingers 7.12502
rthumb 8.87357 9.88932
lclavicle 1.3418e-014 3.97569e-015
lhumerus -57.6356 -6.56881 90.0396
lradius 78.1868
lwrist 32.4395
lhand -30.8799 7.7748
lfingers 7.12502
lthumb -4.16717 37.7138
rfemur -1.41278 5.09656 33.9696
rtibia 42.1454
rfoot -14.6388 -10.3602
rtoes -18.9963
lfemur -45.1862 3.09808 -12.971
ltibia 95.4177
lfoot 5.17308 -7.55071
ltoes -13.2658
105
root -0.574467 17.6598 23.497 5.3062 -2.3906 -3.81949
lowerback 15.6299 2.24322 6.17673
upperback -0.947531 4.33058 1.97692
thorax -9.5271 1.81136 -2.35505
lowerneck -21.5269 -4.99736 -1.51449
upperneck 12.7288 -6.86196 3.1051
head 7.58228 -3.03413 0.40745
rclavicle 3.52843e-014 1.59028e-015
rhumerus -28.1188 17.4985 -93.8295
rradius 118.809
rwrist -27.8772
rhand -16.4341 40.7745
rfingers 7.12502
rthumb 9.78133 11.0217
lclavicle 3.52843e-014 1.59028e-015
lhumerus -58.8432 -6.60691 89.8725
lradius 78.6954
lwrist 32.9302
lhand -30.5762 6.6215
lfingers 7.12502
lthumb -3.87389 36.566
rfemur 0.9246 4.58921 33.536
rtibia 40.443
rfoot -10.8043 -8.60903
rtoes -16.7546
lfemur -45.5286 1.97264 -13.4994
ltibia 91.7028
lfoot 5.67721 -6.87282
ltoes -13.9901
106
root -0.564441 17.7743 24.076 5.10399 -2.05492 -3.85178
lowerback 15.4505 2.37207 6.41626
upperback -1.07255 4.53219 1.8998
thorax -9.52272 1.89187 -2.60946
lowerneck -21.0214 -5.16615 -1.4594
upperneck 12.5814 -7.09951 3.06759
head 7.45194 -3.15798 0.369151
rclavicle -2.31584e-014 4.77083e-015
rhumerus -29.0404 17.0851 -93.9252
rradius 121.103
rwrist -28.8042
rhand -13.2764 42.2956
rfingers 7.12502
rthumb 12.8268 12.7097
lclavicle -2.31584e-014 4.77083e-015
lhumerus -60.0569 -6.42362 89.6266
lradius 79.2816
lwrist 33.2502
lhand -29.1947 4.08323
lfingers 7.12502
lthumb -2.53975 34.0479
rfemur 3.33102 4.1648 33.2012
rtibia 38.5358
rfoot -6.16756 -6.66577
rtoes -14.5232
lfemur -45.4807 1.08689 -13.8009
ltibia 87.582
lfoot 4.50238 -5.58866
ltoes -13.3432
107
root -0.55513 17.9019 24.6749 4.80294 -1.70735 -3.38024
lowerback 14.9382 2.46439 6.19449
upperback -1.0196 4.54726 1.67582
thorax -9.16568 1.92114 -2.69812
lowerneck -20.6387 -5.24158 -1.34826
upperneck 12.3967 -7.22229 3.02593
head 7.32477 -3.22388 0.334071
rclavicle 1.95803e-014 5.00937e-014
rhumerus -29.5008 18.0121 -94.1523
rradius 122.566
rwrist -26.8749
rhand -15.2254 40.072
rfingers 7.12502
rthumb 10.9473 10.3774
lclavicle 1.95803e-014 5.00937e-014
lhumerus -61.1998 -6.08788 89.2494
lradius 80.0908
lwrist 33.5772
lhand -41.6972 45.5119
lfingers 7.12502
lthumb -14.6034 74.9777
rfemur 5.80947 3.48948 32.1453
rtibia 36.5119
rfoot -0.185081 -4.52527
rtoes -9.83904
lfemur -44.9465 0.0614058 -14.6431
ltibia 82.9762
lfoot 3.84883 -5.05296
ltoes -16.9747
108
root -0.544569 18.0159 25.2709 4.49689 -1.08759 -3.15686
lowerback 14.4047 2.46609 6.27644
upperback -0.910958 4.50345 1.56039
thorax -8.72896 1.91423 -2.82251
lowerneck -20.5683 -5.34525 -1.39051
upperneck 12.4895 -7.36442 3.07688
head 7.35062 -3.28805 0.339856
rclavicle 2.24627e-014 -1.03368e-014
rhumerus -29.0386 18.7822 -93.4595
rradius 123.747
rwrist -28.1255
rhand -14.5803 38.5262
rfingers 7.12502
rthumb 11.5695 8.86553
lclavicle 2.24627e-014 -1.03368e-014
lhumerus -62.0848 -5.84073 88.9046
lradius 80.7502
lwrist 34.0385
lhand -40.9 35.5652
lfingers 7.12502
lthumb -13.8352 65.0851
rfemur 8.23488 2.72316 31.4152
rtibia 34.4484
rfoot 7.09935 -2.97278
rtoes -10.5353
lfemur -44.2958 -1.13855 -15.1234
ltibia 78.2081
lfoot 3.59332 -4.80269
ltoes -16.9636
109
root -0.536154 18.0877 25.8475 4.18429 -0.529242 -3.05085
lowerback 14.1553 2.50765 6.41077
upperback -0.850579 4.5492 1.46563
thorax -8.4984 1.93898 -2.99028
lowerneck -20.4893 -5.55371 -1.71025
upperneck 12.6496 -7.63117 3.45063
head 7.42547 -3.3923 0.477589
rclavicle -1.68967e-014 1.43125e-014
rhumerus -28.9041 19.5646 -93.0583
rradius 124.649
rwrist -27.0343
rhand -15.6017 37.2744
rfingers 7.12502
rthumb 10.5844 7.56093
lclavicle -1.68967e-014 1.43125e-014
lhumerus -62.9376 -5.68597 88.5396
lradius 81.4431
lwrist 34.5876
lhand -36.5464 18.06
lfingers 7.12502
lthumb -9.63704 47.8196
rfemur 10.5411 2.48865 31.0253
rtibia 32.617
rfoot 13.7516 -2.42598
rtoes -11.1733
lfemur -43.5839 -2.09205 -15.4491
ltibia 73.3977
lfoot 3.19404 -5.03765
ltoes -16.6099
110
root -0.53392 18.1625 26.4308 3.88375 -0.228664 -2.81711
lowerback 13.8707 2.6034 6.28328
upperback -0.789685 4.61571 1.31756
thorax -8.25994 1.98513 -3.07022
lowerneck -20.2304 -5.7045 -1.97197
upperneck 12.5903 -7.84298 3.89828
head 7.39968 -3.46735 0.644539
rclavicle -9.74045e-015 -5.56597e-015
rhumerus -29.5197 20.9962 -93.4265
rradius 126.144
rwrist -27.0405
rhand -17.7412 33.8692
rfingers 7.12502
rthumb 8.52011 4.06109
lclavicle -9.74045e-015 -5.56597e-015
lhumerus -63.9823 -5.35597 88.028
lradius 82.5761
lwrist 35.0231
lhand -30.2681 5.77939
lfingers 7.12502
lthumb -3.57637 35.7291
rfemur 12.6956 2.85043 30.6526
rtibia 31.249
rfoot 18.6901 -2.55474
rtoes -9.26435
lfemur -42.5621 -2.73257 -15.8853
ltibia 68.3677
lfoot 2.59723 -5.33986
ltoes -16.8109
111
root -0.535906 18.2322 27.0073 3.82833 -0.0319514 -2.52546
lowerback 13.4993 2.71765 5.97551
upperback -0.890237 4.68206 1.16947
thorax -8.16183 2.03069 -3.0489
lowerneck -19.9228 -5.76469 -1.95917
upperneck 12.6824 -7.95205 3.97856
head 7.38579 -3.51427 0.6612
rclavicle 6.06293e-014 -2.38542e-014
rhumerus -30.1219 21.8308 -93.5699
rradius 126.882
rwrist -26.8613
rhand -18.326 33.8696
rfingers 7.12502
rthumb 7.95569 4.03929
lclavicle 6.06293e-014 -2.38542e-014
lhumerus -65.1765 -4.91039 87.4772
lradius 83.8348
lwrist 35.4296
lhand -34.4356 18.725
lfingers 7.12502
lthumb -7.60004 48.5684
rfemur 14.2732 3.65876 30.4404
rtibia 30.6028
rfoot 22.6796 -2.89913
rtoes -3.73165
lfemur -41.7204 -3.18105 -16.3791
ltibia 63.2663
lfoot 2.24201 -5.78267
ltoes -16.9573
112
root -0.533834 18.2816 27.5772 4.04896 0.295759 -2.30741
lowerback 12.9471 2.76075 5.81306
upperback -1.14946 4.67612 1.03442
thorax -8.1296 2.03028 -3.0742
lowerneck -19.5825 -5.79528 -1.86258
upperneck 13.0093 -8.02429 3.87887
head 7.43091 -3.55301 0.608658
rclavicle 5.42185e-014 -7.95139e-016
rhumerus -30.6259 22.3166 -93.4909
rradius 126.956
rwrist -25.748
rhand -18.8377 35.2012
rfingers 7.12502
rthumb 7.46181 5.35277
lclavicle 5.42185e-014 -7.95139e-016
lhumerus -66.4432 -4.5773 86.959
lradius 84.8186
lwrist 35.715
lhand -35.1772 19.6468
lfingers 7.12502
lthumb -8.3158 49.4631
rfemur 15.2515 4.40996 30.4027
rtibia 30.6919
rfoot 26.1167 -3.02841
rtoes 6.09907
lfemur -41.0691 -3.66284 -16.7864
ltibia 58.0385
lfoot 2.26116 -6.60992
ltoes -17.9286
113
root -0.532044 18.341 28.1361 4.33333 0.732782 -2.02638
lowerback 12.5462 2.74175 5.58956
upperback -1.43434 4.58867 0.86087
thorax -8.21926 1.9868 -3.10278
lowerneck -19.3683 -5.76848 -1.89801
upperneck 13.3497 -8.0249 4.01939
head 7.51612 -3.53813 0.660476
rclavicle -3.42904e-014 -2.78299e-015
rhumerus -31.1954 23.1459 -93.7234
rradius 127.183
rwrist -26.1208
rhand -19.3836 34.5897
rfingers 7.12502
rthumb 6.93489 4.72328
lclavicle -3.42904e-014 -2.78299e-015
lhumerus -67.5632 -4.25366 86.4219
lradius 85.716
lwrist 35.8348
lhand -33.7952 14.7956
lfingers 7.12502
lthumb -6.98186 44.6604
rfemur 15.7234 5.09864 30.4488
rtibia 31.607
rfoot 27.9758 -3.10128
rtoes 13.5103
lfemur -40.2863 -4.04363 -17.3537
ltibia 52.8543
lfoot -1.17685 -6.32546
ltoes -31.1895
114
root -0.537355 18.3926 28.6855 4.58904 0.93066 -2.12636
lowerback 12.3655 2.76583 5.61719
upperback -1.68146 4.62059 0.8037
thorax -8.37475 1.98986 -3.18204
lowerneck -19.2373 -5.71921 -1.94504
upperneck 13.6067 -7.99012 4.17748
head 7.58783 -3.50544 0.723537
rclavicle -2.18663e-015 8.34896e-015
rhumerus -32.321 25.214 -94.8654
rradius 126.868
rwrist -20.3376
rhand -30.5788 26.4914
rfingers 7.12502
rthumb -3.87636 -3.4531
lclavicle -2.18663e-015 8.34896e-015
lhumerus -68.5398 -3.84492 85.9069
lradius 86.895
lwrist 36.1065
lhand -32.7045 12.8813
lfingers 7.12502
lthumb -5.9289 42.7783
rfemur 15.8465 6.04248 31.0174
rtibia 33.2726
rfoot 28.2648 -3.25761
rtoes 16.1417
lfemur -39.564 -4.17773 -17.4154
ltibia 47.5726
lfoot 1.74778 -8.53798
ltoes -22.234
115
root -0.544904 18.4257 29.2404 4.66946 0.791837 -2.42481
lowerback 12.2984 2.89281 5.73524
upperback -1.83744 4.812 0.810775
thorax -8.48061 2.07032 -3.27572
lowerneck -19.3613 -5.70367 -1.78403
upperneck 14.0607 -8.00275 3.99877
head 7.74502 -3.50897 0.629247
rclavicle 1.79403e-014 6.36111e-015
rhumerus -33.2068 26.3207 -95.5735
rradius 126.563
rwrist -17.9933
rhand -20.9978 39.0381
rfingers 7.12502
rthumb 5.37646 9.1263
lclavicle 1.79403e-014 6.36111e-015
lhumerus -69.2809 -3.53028 85.4748
lradius 88.1204
lwrist 36.5015
lhand -31.8833 12.0167
lfingers 7.12502
lthumb -5.13609 41.9345
rfemur 15.9481 7.2044 31.8201
rtibia 35.5029
rfoot 27.8563 -3.62637
rtoes 16.7009
lfemur -38.6199 -3.78474 -17.365
ltibia 42.4278
lfoot 3.74111 -10.009
ltoes -15.0729
